<svg width="32" height="32" viewBox="0 0 32 32" fill="none" xmlns="http://www.w3.org/2000/svg">
<path d="M16 1C17.0355 1 17.875 1.83947 17.875 2.875V14.125H29.125C30.1605 14.125 31 14.9645 31 16C31 17.0355 30.1605 17.875 29.125 17.875H17.875V29.125C17.875 30.1605 17.0355 31 16 31C14.9645 31 14.125 30.1605 14.125 29.125V17.875H2.875C1.83947 17.875 1 17.0355 1 16C1 14.9645 1.83947 14.125 2.875 14.125H14.125V2.875C14.125 1.83947 14.9645 1 16 1Z" fill="#800000" stroke="#800000" stroke-width="2" stroke-linecap="round"/>
</svg>
